<svg width="40" height="40" viewBox="0 0 40 40" fill="none" xmlns="http://www.w3.org/2000/svg">
<path d="M0 10C0 4.47715 4.47715 0 10 0H30C35.5228 0 40 4.47715 40 10V30C40 35.5228 35.5228 40 30 40H10C4.47715 40 0 35.5228 0 30V10Z" fill="#DCFCE7"/>
<path d="M28.1673 18.3333C28.5479 20.2011 28.2767 22.1428 27.3989 23.8348C26.5211 25.5268 25.0897 26.8667 23.3436 27.6311C21.5975 28.3955 19.642 28.5381 17.8034 28.0353C15.9648 27.5325 14.3542 26.4145 13.2401 24.8678C12.126 23.3212 11.5758 21.4394 11.6812 19.5361C11.7867 17.6329 12.5414 15.8234 13.8195 14.4093C15.0977 12.9952 16.822 12.062 18.7049 11.7654C20.5878 11.4687 22.5155 11.8265 24.1665 12.7792" stroke="#00A63E" stroke-width="1.66667" stroke-linecap="round" stroke-linejoin="round"/>
<path d="M17.5 19.1666L20 21.6666L28.3333 13.3333" stroke="#00A63E" stroke-width="1.66667" stroke-linecap="round" stroke-linejoin="round"/>
</svg>
