<svg width="14" height="14" viewBox="0 0 14 14" fill="none" xmlns="http://www.w3.org/2000/svg">
<path d="M9.33317 12.25V11.0833C9.33317 10.4645 9.08734 9.871 8.64975 9.43342C8.21217 8.99583 7.61868 8.75 6.99984 8.75H3.49984C2.881 8.75 2.28751 8.99583 1.84992 9.43342C1.41234 9.871 1.1665 10.4645 1.1665 11.0833V12.25" stroke="#4A5565" stroke-width="1.16667" stroke-linecap="round" stroke-linejoin="round"/>
<path d="M9.3335 1.82471C9.83385 1.95442 10.277 2.24661 10.5933 2.65541C10.9096 3.06421 11.0813 3.56648 11.0813 4.08337C11.0813 4.60027 10.9096 5.10254 10.5933 5.51134C10.277 5.92014 9.83385 6.21232 9.3335 6.34204" stroke="#4A5565" stroke-width="1.16667" stroke-linecap="round" stroke-linejoin="round"/>
<path d="M12.8335 12.2501V11.0834C12.8331 10.5664 12.661 10.0642 12.3443 9.65561C12.0275 9.24701 11.5841 8.95518 11.0835 8.82593" stroke="#4A5565" stroke-width="1.16667" stroke-linecap="round" stroke-linejoin="round"/>
<path d="M5.24984 6.41667C6.5385 6.41667 7.58317 5.372 7.58317 4.08333C7.58317 2.79467 6.5385 1.75 5.24984 1.75C3.96117 1.75 2.9165 2.79467 2.9165 4.08333C2.9165 5.372 3.96117 6.41667 5.24984 6.41667Z" stroke="#4A5565" stroke-width="1.16667" stroke-linecap="round" stroke-linejoin="round"/>
</svg>
